<svg xmlns="http://www.w3.org/2000/svg" xmlns:xlink="http://www.w3.org/1999/xlink" width="22"
  height="22" viewBox="0 0 22 22" fill="none">
  <path
    d="M9.6985 15.794C9.44454 14.7782 9.31756 14.2702 9.05309 13.8569C8.81915 13.4913 8.50868 13.1808 8.14309 12.9469C7.72978 12.6824 7.22185 12.5555 6.20599 12.3015L1 11L6.20599 9.6985C7.22185 9.44454 7.72978 9.31756 8.14309 9.05308C8.50868 8.81915 8.81915 8.50868 9.05308 8.14309C9.31756 7.72978 9.44454 7.22185 9.6985 6.20599L11 1L12.3015 6.20599C12.5555 7.22185 12.6824 7.72978 12.9469 8.14309C13.1808 8.50868 13.4913 8.81915 13.8569 9.05308C14.2702 9.31756 14.7782 9.44454 15.794 9.6985L21 11L15.794 12.3015C14.7782 12.5555 14.2702 12.6824 13.8569 12.9469C13.4913 13.1808 13.1808 13.4913 12.9469 13.8569C12.6824 14.2702 12.5555 14.7782 12.3015 15.794L11 21L9.6985 15.794Z"
    stroke="rgba(217, 192, 91, 1)" stroke-width="2" stroke-linejoin="round" stroke-linecap="round">
</path>
</svg>