<svg xmlns="http://www.w3.org/2000/svg" xmlns:xlink="http://www.w3.org/1999/xlink" width="29"
  height="29" viewBox="0 0 29 29" fill="none">
  <path fill-rule="evenodd" fill="rgba(0, 0, 0, 1)"
    d="M14.5 0C6.49187 0 0 6.49187 0 14.5C0 22.5081 6.49187 29 14.5 29C22.5081 29 29 22.5081 29 14.5C29 6.49187 22.5081 0 14.5 0ZM14.5 28C7.04416 28 1 21.9558 1 14.5C1 7.04416 7.04416 1 14.5 1C21.9558 1 28 7.04416 28 14.5C28 21.9558 21.9558 28 14.5 28Z">
</path>
  <path
    d="M11 19.0809C11 19.4771 11.4389 19.7159 11.7716 19.5006L18.8512 14.9198C19.1557 14.7227 19.1557 14.2772 18.8512 14.0802L11.7716 9.49925C11.4389 9.28399 11 9.52278 11 9.91903L11 19.0809Z"
    stroke="rgba(0, 0, 0, 1)" stroke-width="1" fill="#000000">
</path>
</svg>